# xmcd CD database file
#
# Track frame offsets:
#	150
#	18425
#	35379
#	49074
#	61217
#	74091
#	89570
#	106459
#
# Disc length: 1602 seconds
#
# Revision: 0
# Processed by: cddbd v1.5.2PL0 Copyright (c) Steve Scherf et al.
# Submitted via: CDex 1.70beta2
#
DISCID=6d064008
DTITLE=Waylon Jennings - The Essential 3.0
DYEAR=2008
DGENRE=Country
TTITLE0="T" for Texas
TTITLE1=Can't You See
TTITLE2=Come with Me
TTITLE3=Clyde
TTITLE4=Shine
TTITLE5=Lucille (You Won't Do Your Daddy's Will)
TTITLE6=America
TTITLE7=Highwayman (The Highwaymen [Waylon Jennings, Willie Nelson, Johnny Cash, Kris Kristofferson])
EXTD=YEAR: 2008
EXTT0=
EXTT1=
EXTT2=
EXTT3=
EXTT4=
EXTT5=
EXTT6=
EXTT7=
PLAYORDER=
